<svg width="20px" height="20px" viewBox="0 0 25 25" version="1.1" xmlns="http://www.w3.org/2000/svg" xmlns:xlink="http://www.w3.org/1999/xlink">
    <!-- Generator: Sketch 42 (36781) - http://www.bohemiancoding.com/sketch -->
    <g stroke="none" stroke-width="1" fill="none" fill-rule="evenodd" opacity="0.701609142">
        <g transform="translate(-223.000000, -119.000000)" fill="#FFFFFF">
            <path d="M240.482897,144 L246.398107,144 C247.27876,144 248,143.282808 248,142.398107 L248,120.601893 C248,119.72124 247.282808,119 246.398107,119 L224.601893,119 C223.72124,119 223,119.717192 223,120.601893 L223,142.398107 C223,143.27876 223.717192,144 224.601893,144 L236.048668,144 L236.048668,134.165821 L233.833333,134.165821 L233.833333,130.432157 L236.048668,130.432157 L236.048668,128.190479 C236.048668,125.144562 237.299584,123.333333 240.853585,123.333333 L243.81239,123.333333 L243.81239,127.06742 L241.962928,127.06742 C240.579443,127.06742 240.487923,127.589203 240.487923,128.563 L240.482897,130.431734 L243.833333,130.431734 L243.441283,134.165398 L240.482897,134.165398 L240.482897,144 Z" ></path>
        </g>
    </g>
</svg>
