<svg width="21px" height="20px" viewBox="0 0 26 25" version="1.1" xmlns="http://www.w3.org/2000/svg" xmlns:xlink="http://www.w3.org/1999/xlink">
    <!-- Generator: Sketch 42 (36781) - http://www.bohemiancoding.com/sketch -->
    <g stroke="none" stroke-width="1" fill="none" fill-rule="evenodd" opacity="0.7">
        <g transform="translate(-274.000000, -120.000000)" fill="#FFFFFF">
            <path d="M285.819913,120.003812 C286.225941,120.003177 286.678991,120.003812 287.187956,120.003812 C291.259682,120.003812 291.742278,120.018427 293.35019,120.091499 C294.837056,120.159489 295.64403,120.407935 296.18159,120.616668 C296.893252,120.893073 297.400629,121.223487 297.934058,121.757234 C298.467805,122.290981 298.79822,122.799311 299.07526,123.510974 C299.283993,124.047897 299.532757,124.854872 299.600428,126.341738 C299.673501,127.949332 299.689386,128.432246 299.689386,132.502065 C299.689386,136.571884 299.673501,137.054798 299.600428,138.662392 C299.532439,140.149258 299.283993,140.956233 299.07526,141.493157 C298.798855,142.204819 298.467805,142.711561 297.934058,143.24499 C297.400311,143.778737 296.89357,144.109151 296.18159,144.385556 C295.644666,144.595242 294.837056,144.843053 293.35019,144.911042 C291.742596,144.984115 291.259682,145 287.187956,145 C283.115913,145 282.633317,144.984115 281.025723,144.911042 C279.538857,144.842418 278.731882,144.593971 278.194006,144.385238 C277.482343,144.108834 276.974013,143.778419 276.440266,143.244672 C275.906519,142.710925 275.576105,142.203866 275.299065,141.491886 C275.090332,140.954962 274.841567,140.147988 274.773896,138.661122 C274.700823,137.053527 274.686209,136.570613 274.686209,132.498253 C274.686209,128.425892 274.700823,127.94552 274.773896,126.337925 C274.841885,124.851059 275.090332,124.044085 275.299065,123.506526 C275.575469,122.794863 275.906519,122.286533 276.440266,121.752786 C276.974013,121.21904 277.482343,120.888625 278.194006,120.611585 C278.731565,120.401899 279.538857,120.154088 281.025723,120.085781 C282.432527,120.022239 282.977711,120.003177 285.819913,120 L285.819913,120.003812 Z M294.209601,123.883928 C293.326255,123.883928 292.609577,124.599772 292.609577,125.483396 C292.609577,126.366743 293.326255,127.08342 294.209601,127.08342 C295.092947,127.08342 295.809624,126.366743 295.809624,125.483396 C295.809624,124.60005 295.092947,123.883373 294.209601,123.883373 L294.209601,123.883928 Z M287.092274,125.7534 C283.31083,125.7534 280.244952,128.819279 280.244952,132.600723 C280.244952,136.382167 283.31083,139.446656 287.092274,139.446656 C290.873719,139.446656 293.938486,136.382167 293.938486,132.600723 C293.938486,128.819279 290.873441,125.7534 287.091997,125.7534 L287.092274,125.7534 Z M287.092274,128.156213 C289.546755,128.156213 291.536784,130.145965 291.536784,132.600723 C291.536784,135.055203 289.546755,137.045232 287.092274,137.045232 C284.637516,137.045232 282.647765,135.055203 282.647765,132.600723 C282.647765,130.145965 284.637516,128.156213 287.092274,128.156213 L287.092274,128.156213 Z" ></path>
        </g>
    </g>
</svg>
