<svg width="21px" height="21px" viewBox="0 0 21 21" version="1.1" xmlns="http://www.w3.org/2000/svg" xmlns:xlink="http://www.w3.org/1999/xlink">
    <!-- Generator: Sketch 43 (38999) - http://www.bohemiancoding.com/sketch -->
    <g stroke="none" stroke-width="1" fill="none" fill-rule="evenodd" stroke-linecap="square">
        <g transform="translate(-308.000000, -568.000000)" stroke="#1C1C1C">
            <g transform="translate(36.000000, 470.000000)">
                <g transform="translate(272.000000, 98.000000)">
                    <path d="M11.9,9.1 L11.9,9.1 C13.9,11.1 13.9,14.2 11.9,16.2 L9.1,19 C7.1,21 4,21 2,19 L2,19 C-1.11022302e-16,17 -1.11022302e-16,13.9 2,11.9 L4.5,9.5"></path>
                    <path d="M9.1,11.9 L9.1,11.9 C7.1,9.9 7.1,6.8 9.1,4.8 L11.9,2 C13.9,-1.11022302e-16 17,-1.11022302e-16 19,2 L19,2 C21,4 21,7.1 19,9.1 L16.5,11.5"></path>
                </g>
            </g>
        </g>
    </g>
</svg>
