<svg width="26px" height="22px" viewBox="0 0 31 27" version="1.1" xmlns="http://www.w3.org/2000/svg" xmlns:xlink="http://www.w3.org/1999/xlink">
    <!-- Generator: Sketch 42 (36781) - http://www.bohemiancoding.com/sketch -->
    <g stroke="none" stroke-width="1" fill="none" fill-rule="evenodd">
        <g  transform="translate(-381.000000, -118.000000)" stroke="#1B1D1C" fill="#BBBBBB">
            <g transform="translate(382.000000, 119.000000)">
                <path d="M19.4970005,0.028473729 C19.3505386,-0.0452851388 19.2307692,0.0292732832 19.2307692,0.194181321 L19.2307692,20.4744719 L28.04746,24.9145958 C28.4867466,25.1358724 28.8461538,24.9120972 28.8461538,24.4173731 L28.8461538,4.89545962 C28.8461538,4.79821385 28.7915779,4.70926345 28.7052487,4.6657877 L19.4970005,0.028473729" ></path>
                <path d="M9.61538462,15.4176708 L19.1201242,0.151959138 C19.2063687,0.0135024535 19.397303,-0.0403034891 19.544467,0.0324232246 L28.7256652,4.56966354 C28.8400263,4.62613022 28.8808055,4.76744473 28.813804,4.87505661 L19.2768598,20.1923077 L9.61538462,15.4176708" id="Fill-7"></path>
                <path d="M0.624147757,0.131575642 C0.0241866134,-0.163608703 -0.179086686,0.0548537197 0.172474485,0.617114377 L9.38207623,15.3458229 L19.2307692,20.1923077 L9.44570077,4.54313618 C9.40413138,4.47651714 9.34436903,4.42280179 9.27342665,4.38779179 L0.624147757,0.131575642" ></path>
                <path d="M9.61538462,24.4149024 C9.61538462,24.9117244 9.25588183,25.1364486 8.8165998,24.9142336 L0.532556286,20.7245683 C0.239635445,20.576425 0,20.1842868 0,19.8530721 L0,0.390092856 C0,0.0588781466 0.239635445,-0.0909714175 0.532556286,0.057171889 L9.49680724,4.59089905 C9.56944209,4.62763378 9.61538462,4.70270911 9.61538462,4.78491058 L9.61538462,24.4149024"></path>
            </g>
        </g>
    </g>
</svg>
