<svg width="26px" height="20px" viewBox="0 0 31 25" version="1.1" xmlns="http://www.w3.org/2000/svg" xmlns:xlink="http://www.w3.org/1999/xlink">
    <!-- Generator: Sketch 42 (36781) - http://www.bohemiancoding.com/sketch -->
    <g stroke="none" stroke-width="1" fill="none" fill-rule="evenodd">
        <g transform="translate(-325.000000, -120.000000)" fill="#BBBBBB">
            <path d="M340.064661,126.650391 L340.130237,127.731712 L339.037301,127.599305 C335.059012,127.091747 331.583474,125.370461 328.632546,122.479584 L327.18987,121.045179 L326.818271,122.104432 C326.031357,124.465683 326.534108,126.95934 328.173512,128.63649 C329.047862,129.563336 328.851133,129.695743 327.342881,129.144049 C326.818271,128.967507 326.359238,128.8351 326.31552,128.901304 C326.162509,129.055778 326.687119,131.063945 327.102435,131.858384 C327.670762,132.961772 328.829274,134.043093 330.097081,134.683058 L331.168158,135.190617 L329.900352,135.212684 C328.676263,135.212684 328.632546,135.234752 328.763698,135.698175 C329.200873,137.13258 330.927712,138.655256 332.85128,139.317289 L334.206522,139.780712 L333.02615,140.48688 C331.277452,141.501998 329.222731,142.075759 327.168011,142.119895 C326.184368,142.141963 325.375595,142.230234 325.375595,142.296437 C325.375595,142.517115 328.04236,143.75291 329.59433,144.2384 C334.250239,145.672805 339.780497,145.054908 343.933656,142.605386 C346.884584,140.862032 349.835513,137.397393 351.212613,134.043093 C351.95581,132.255604 352.699006,128.989575 352.699006,127.422763 C352.699006,126.407646 352.764583,126.275239 353.988671,125.061512 C354.710009,124.355344 355.38763,123.582972 355.518782,123.362294 C355.73737,122.943007 355.715511,122.943007 354.600716,123.318159 C352.742724,123.980192 352.480419,123.891921 353.398486,122.898871 C354.076106,122.192703 354.884879,120.912772 354.884879,120.53762 C354.884879,120.471417 354.556998,120.581756 354.1854,120.780366 C353.791943,121.001044 352.917594,121.33206 352.261832,121.53067 L351.08146,121.905822 L350.010383,121.177586 C349.420197,120.780366 348.589565,120.339011 348.152391,120.206604 C347.037596,119.897655 345.332615,119.941791 344.327113,120.294875 C341.594772,121.287924 339.867932,123.847785 340.064661,126.650391 Z"></path>
        </g>
    </g>
</svg>
