<svg width="25px" height="22px" viewBox="0 0 30 27" version="1.1" xmlns="http://www.w3.org/2000/svg" xmlns:xlink="http://www.w3.org/1999/xlink">
    <!-- Generator: Sketch 42 (36781) - http://www.bohemiancoding.com/sketch -->
    <g stroke="none" stroke-width="1" fill="none" fill-rule="evenodd" opacity="0.7">
        <g id="Artboard" transform="translate(-438.000000, -118.000000)" fill="#FFFFFF">
            <path d="M452.997846,128.624261 C454.23726,128.624261 455.296992,129.069566 456.177077,129.960198 C457.057166,130.850826 457.497203,131.923253 457.497203,133.177515 C457.497203,134.431772 457.057166,135.504203 456.177077,136.394831 C455.296992,137.28546 454.23726,137.730768 452.997846,137.730768 C451.758436,137.730768 450.698701,137.28546 449.818616,136.394831 C448.93853,135.504203 448.498493,134.431772 448.498493,133.177515 C448.498493,131.923253 448.93853,130.850826 449.818616,129.960198 C450.698701,129.069566 451.758436,128.624261 452.997846,128.624261 L452.997846,128.624261 Z M463.996267,122.047337 C465.100282,122.047337 466.042847,122.442581 466.823987,123.233079 C467.605131,124.023581 467.995696,124.977434 467.995696,126.094674 L467.995696,140.260355 C467.995696,141.377594 467.605131,142.331449 466.823987,143.121949 C466.042847,143.912449 465.100282,144.307692 463.996267,144.307692 L441.999425,144.307692 C440.895412,144.307692 439.952848,143.912449 439.171707,143.121949 C438.390565,142.331449 438,141.377594 438,140.260355 L438,126.094674 C438,124.977434 438.390565,124.023581 439.171707,123.233079 C439.952848,122.442581 440.895412,122.047337 441.999425,122.047337 L445.498923,122.047337 L446.295685,119.897188 C446.493575,119.380729 446.855496,118.93542 447.381467,118.561251 C447.907435,118.187079 448.446414,118 448.998421,118 L456.997272,118 C457.549279,118 458.088261,118.187079 458.614229,118.561251 C459.140196,118.93542 459.502121,119.380729 459.700011,119.897188 L460.496769,122.047337 L463.996267,122.047337 Z M452.997846,140.260355 C454.924663,140.260355 456.572849,139.56736 457.942451,138.18135 C459.312053,136.795341 459.996842,135.127414 459.996842,133.177515 C459.996842,131.227616 459.312053,129.559685 457.942451,128.173675 C456.572849,126.787666 454.924663,126.094674 452.997846,126.094674 C451.07103,126.094674 449.422847,126.787666 448.053245,128.173675 C446.683643,129.559685 445.998851,131.227616 445.998851,133.177515 C445.998851,135.127414 446.683643,136.795341 448.053245,138.18135 C449.422847,139.56736 451.07103,140.260355 452.997846,140.260355 L452.997846,140.260355 Z" ></path>
        </g>
    </g>
</svg>
